<?xml version="1.0" encoding="UTF-8"?>
<svg
  xmlns="http://www.w3.org/2000/svg"
  viewBox="0 0 800 138"
  fill="none"
>
<path d="M0 0 C6.93 0 13.86 0 21 0 C22.47596222 3.68990554 23.3925814 6.42722217 24.078125 10.2265625 C24.26673096 11.24596924 24.45533691 12.26537598 24.6496582 13.31567383 C24.847771 14.40775146 25.04588379 15.4998291 25.25 16.625 C27.28316214 27.57261642 29.5928245 38.43369891 32.12011719 49.27783203 C32.36536133 50.34759277 32.61060547 51.41735352 32.86328125 52.51953125 C33.19259644 53.92875854 33.19259644 53.92875854 33.52856445 55.36645508 C33.99501971 57.97217898 34.08695673 60.35932446 34 63 C34.66 63 35.32 63 36 63 C36.19686401 61.46666016 36.19686401 61.46666016 36.39770508 59.90234375 C36.94523745 56.35481335 37.69657311 53.02294218 38.63671875 49.5625 C38.96397949 48.34796143 39.29124023 47.13342285 39.62841797 45.88208008 C39.98131593 44.5880181 40.33434593 43.29399211 40.6875 42 C41.41436032 39.31683786 42.13882321 36.63303035 42.86328125 33.94921875 C43.04451538 33.27944504 43.22574951 32.60967133 43.41247559 31.91960144 C44.57110981 27.62742675 45.69492809 23.32770779 46.79296875 19.01953125 C47.19672729 17.43881836 47.19672729 17.43881836 47.60864258 15.82617188 C48.10899829 13.85854176 48.60512252 11.88982939 49.09643555 9.91992188 C49.31984619 9.04529297 49.54325684 8.17066406 49.7734375 7.26953125 C49.96341309 6.51260986 50.15338867 5.75568848 50.34912109 4.97583008 C51 3 51 3 53 0 C54.87939453 -0.34057617 54.87939453 -0.34057617 57.1328125 -0.29296875 C57.93847656 -0.28330078 58.74414062 -0.27363281 59.57421875 -0.26367188 C60.83685547 -0.2259668 60.83685547 -0.2259668 62.125 -0.1875 C62.97449219 -0.17396484 63.82398438 -0.16042969 64.69921875 -0.14648438 C66.79974837 -0.11108219 68.89995293 -0.05727401 71 0 C77.54503351 20.50978244 83.42109191 41.20842249 89 62 C90.85070056 60.14929944 90.83158175 57.1745741 91.30859375 54.6875 C91.57624133 53.31111641 91.84433055 51.93481864 92.11279297 50.55859375 C92.32751251 49.45040283 92.32751251 49.45040283 92.54656982 48.31982422 C93.83363293 41.73499525 95.19231272 35.16411591 96.53442383 28.59033203 C96.88934954 26.84934185 97.24317339 25.1081267 97.59594727 23.36669922 C98.11472848 20.80642446 98.63707283 18.2468988 99.16015625 15.6875 C99.31541275 14.91760742 99.47066925 14.14771484 99.63063049 13.35449219 C99.78096237 12.62262695 99.93129425 11.89076172 100.08618164 11.13671875 C100.21481094 10.50467529 100.34344025 9.87263184 100.47596741 9.22143555 C101.20766261 6.11969386 102.1244978 3.0642577 103 0 C109.93 0 116.86 0 124 0 C124 5.53862775 123.68532029 9.13059402 122.3828125 14.3359375 C122.20998245 15.0368602 122.0371524 15.7377829 121.85908508 16.45994568 C121.28851265 18.76688813 120.70673907 21.07085062 120.125 23.375 C119.72319413 24.99157066 119.3222499 26.6083557 118.92211914 28.2253418 C118.07041934 31.66425808 117.21482892 35.10217514 116.35693359 38.53955078 C114.24131387 47.03294686 112.17944178 55.53950865 110.11102295 64.04449463 C109.03317004 68.4741917 107.95208958 72.90310032 106.87109375 77.33203125 C106.25363281 79.86246094 105.63617188 82.39289063 105 85 C94.77 85 84.54 85 74 85 C69.87570745 70.36280488 65.80785076 55.72251976 62 41 C61.8141333 41.69335449 61.6282666 42.38670898 61.43676758 43.10107422 C57.68590234 57.08503961 53.89940107 71.05668708 50 85 C39.77 85 29.54 85 19 85 C10.7105614 51.98516695 10.7105614 51.98516695 7.09277344 36.71142578 C5.94828031 31.89204911 4.77398165 27.08501889 3.51953125 22.29296875 C3.16701294 20.93510254 3.16701294 20.93510254 2.80737305 19.54980469 C2.37058789 17.87767548 1.92614972 16.20751506 1.47192383 14.54003906 C1.18031372 13.42000488 1.18031372 13.42000488 0.8828125 12.27734375 C0.71152832 11.64046631 0.54024414 11.00358887 0.36376953 10.34741211 C-0.16475193 6.93685251 0 3.45126813 0 0 Z " fill="#000000" transform="translate(305,41)"/>
<path d="M0 0 C7.59 0 15.18 0 23 0 C23.33 14.19 23.66 28.38 24 43 C26.475 40.03 26.475 40.03 29 37 C31.09765625 35.35546875 31.09765625 35.35546875 33.0625 34.1875 C33.71347656 33.78917969 34.36445312 33.39085937 35.03515625 32.98046875 C42.47350209 29.26868981 54.33642636 29.80980144 62.1875 32.25 C70.49961242 35.69763754 74.3942342 42.25928012 78.01342773 50.23266602 C82.7287748 63.45920869 81.23872184 79.20318052 81.125 93 C81.11494248 95.14322495 81.10582157 97.28645451 81.09765625 99.4296875 C81.07760094 104.62000229 81.03841534 109.80966081 81 115 C73.74 115 66.48 115 59 115 C58.97421875 111.42285156 58.9484375 107.84570312 58.921875 104.16015625 C58.88340331 100.67497063 58.83825938 97.18993039 58.79248047 93.70483398 C58.76434892 91.29279585 58.74309574 88.88066687 58.72900391 86.46850586 C58.70746673 82.99025218 58.66075866 79.51308188 58.609375 76.03515625 C58.60814636 74.96604507 58.60691772 73.8969339 58.60565186 72.79542542 C58.46243065 65.38416666 57.40437436 58.51419289 52.0625 53 C46.35874489 50.23454298 39.89919741 50.23017929 33.875 52 C29.12441694 53.91868209 27.11291381 57.50212339 25 62 C24.0355197 64.89344091 23.85440015 66.80960405 23.81054688 69.82275391 C23.79382935 70.80031647 23.77711182 71.77787903 23.7598877 72.7850647 C23.74631226 73.83825897 23.73273682 74.89145325 23.71875 75.9765625 C23.70034058 77.05755219 23.68193115 78.13854187 23.66296387 79.25228882 C23.58415162 83.88618931 23.51635442 88.5202357 23.44775391 93.15429688 C23.39617993 96.53262873 23.33888385 99.9108295 23.28125 103.2890625 C23.26767456 104.34630524 23.25409912 105.40354797 23.2401123 106.49282837 C23.22339478 107.46408661 23.20667725 108.43534485 23.18945312 109.43603516 C23.17066101 110.72485092 23.17066101 110.72485092 23.15148926 112.03970337 C23 114 23 114 22 115 C14.74 115 7.48 115 0 115 C0 77.05 0 39.1 0 0 Z " fill="#000000" transform="translate(673,11)"/>
<path d="M0 0 C2.9375 2.625 2.9375 2.625 5 5 C5.66 5.66 6.32 6.32 7 7 C7.09087891 5.93458984 7.09087891 5.93458984 7.18359375 4.84765625 C7.26738281 3.92855469 7.35117187 3.00945313 7.4375 2.0625 C7.51871094 1.14597656 7.59992188 0.22945312 7.68359375 -0.71484375 C8 -3 8 -3 9 -4 C16.26 -4 23.52 -4 31 -4 C31 23.72 31 51.44 31 80 C24.73 80 18.46 80 12 80 C11.01 76.7 10.02 73.4 9 70 C5.65641643 72.57748212 5.65641643 72.57748212 2.625 75.5 C-4.659529 82.22418062 -12.81037132 82.38320307 -22.26953125 82.20703125 C-30.15036567 81.76966557 -35.49154488 79.46159733 -41.21484375 74 C-51.82899369 62.10843596 -51.95210789 45.71094984 -51.21582031 30.625 C-50.28111195 19.2562395 -46.55271937 9.30271937 -38.4375 1.1875 C-27.9784305 -7.37170107 -11.20203683 -7.06266205 0 0 Z M-24.8125 20.8125 C-28.86765578 26.72144128 -29.31914489 31.99420082 -29.25 38.9375 C-29.25773437 39.71029297 -29.26546875 40.48308594 -29.2734375 41.27929688 C-29.24615343 49.3485599 -27.75866978 55.24133022 -22 61 C-15.9682951 64.42340008 -8.71433305 64.60169596 -2.11328125 62.92578125 C2.41664468 60.94132202 5.04869745 57.08426751 7.0534668 52.69189453 C8.61552228 48.24948449 8.36880549 43.85505966 8.375 39.1875 C8.41173828 37.74793945 8.41173828 37.74793945 8.44921875 36.27929688 C8.47496269 29.99348591 7.62542779 25.22765879 4 20 C-0.33311836 15.7752096 -3.89797224 14.8617706 -9.8125 14.75 C-16.13364389 14.842958 -20.27119946 16.27119946 -24.8125 20.8125 Z " fill="#000000" transform="translate(484,46)"/>
<path d="M0 0 C2.50024203 2.03208972 4.74594415 4.14447616 6.8984375 6.54296875 C7.5790625 7.24421875 8.2596875 7.94546875 8.9609375 8.66796875 C15.5010454 18.37264499 14.8984375 26.38601147 14.8984375 38.54296875 C-4.9015625 38.54296875 -24.7015625 38.54296875 -45.1015625 38.54296875 C-43.30266404 49.28597384 -43.30266404 49.28597384 -37.1015625 57.54296875 C-30.19557364 60.79520769 -23.77192831 61.4560014 -16.4140625 59.35546875 C-12.39050801 57.89795667 -10.33562548 56.29619456 -8.1015625 52.54296875 C-7.4415625 50.89296875 -6.7815625 49.24296875 -6.1015625 47.54296875 C0.8284375 47.54296875 7.7584375 47.54296875 14.8984375 47.54296875 C13.87362335 57.79111026 12.2344631 63.31517897 4.97265625 70.4296875 C-6.17163827 79.29598996 -18.3495808 80.39771899 -32.1015625 79.54296875 C-40.17255943 78.48004728 -46.18692312 76.16125877 -52.1015625 70.54296875 C-52.79121094 69.90488281 -53.48085937 69.26679687 -54.19140625 68.609375 C-62.83927528 59.83267366 -66.21435037 48.42621884 -66.2890625 36.29296875 C-66.13872344 23.0480973 -62.59935998 12.37183989 -53.40234375 2.5859375 C-38.85904942 -10.32771774 -15.70958832 -11.48444633 0 0 Z M-40.4765625 16.98046875 C-42.74642173 20.55986215 -44.1015625 23.27371161 -44.1015625 27.54296875 C-31.8915625 27.54296875 -19.6815625 27.54296875 -7.1015625 27.54296875 C-8.07068663 20.14616161 -8.07068663 20.14616161 -12.1015625 14.54296875 C-16.90958055 10.95638715 -21.70007554 9.8912101 -27.640625 10.15625 C-32.94854608 10.99035188 -36.75442361 13.16037884 -40.4765625 16.98046875 Z " fill="#000000" transform="translate(285.1015625,48.45703125)"/>
<path d="M0 0 C6.27 0 12.54 0 19 0 C20.45731197 5.82924789 21.2371427 9.30857517 21 15 C23.13139019 12.94473089 24.99776768 11.00322446 26.6875 8.5625 C31.67189133 3.03925555 38.23642536 0.21388621 45.57421875 -0.203125 C54.5194689 -0.37257965 61.93070516 -0.11070365 69.75 4.6875 C81.06865586 16.32056296 81.16481411 32.01446629 81.1328125 47.3203125 C81.13376923 48.34559052 81.13472595 49.37086853 81.13571167 50.42721558 C81.13638649 52.56996727 81.13458145 54.71272109 81.13037109 56.85546875 C81.12495714 60.15108725 81.13036788 63.44657287 81.13671875 66.7421875 C81.13605893 68.83072947 81.13477975 70.91927135 81.1328125 73.0078125 C81.13483673 73.99621124 81.13686096 74.98460999 81.13894653 76.00296021 C81.13421829 77.36105301 81.13421829 77.36105301 81.12939453 78.74658203 C81.12859894 79.54613312 81.12780334 80.3456842 81.12698364 81.16946411 C81 83 81 83 80 84 C78.43827255 84.08685603 76.87270656 84.10702219 75.30859375 84.09765625 C74.36435547 84.09443359 73.42011719 84.09121094 72.44726562 84.08789062 C71.45404297 84.07951172 70.46082031 84.07113281 69.4375 84.0625 C68.44041016 84.05798828 67.44332031 84.05347656 66.41601562 84.04882812 C63.94395151 84.03700007 61.47200482 84.02051849 59 84 C58.99191315 83.44591461 58.98382629 82.89182922 58.97549438 82.32095337 C58.88890407 76.51241538 58.78938238 70.70419751 58.68261719 64.89599609 C58.64452206 62.73329071 58.60963659 60.57052617 58.578125 58.40771484 C58.53204886 55.28461675 58.47412765 52.16191923 58.4140625 49.0390625 C58.40251129 48.08448151 58.39096008 47.12990051 58.37905884 46.14639282 C58.1977099 37.74781377 57.96579028 28.449503 52 22 C45.01588149 19.10093194 37.99025885 19.15211677 31 22 C25.18193964 27.15691714 23.53444999 34.13175185 22.70181274 41.71615601 C22.56392718 44.4530763 22.50715918 47.17769308 22.48828125 49.91796875 C22.47033005 50.90122635 22.45237885 51.88448395 22.43388367 52.89753723 C22.38031866 55.99414967 22.34605947 59.09061292 22.3125 62.1875 C22.27927932 64.30535908 22.24478537 66.42319859 22.20898438 68.54101562 C22.12226053 73.69402548 22.06173263 78.84638991 22 84 C14.74 84 7.48 84 0 84 C0 56.28 0 28.56 0 0 Z " fill="#000000" transform="translate(131,42)"/>
<path d="M0 0 C7.79971343 6.23450956 13.06787391 13.00833699 15.31640625 22.8515625 C15.31640625 24.1715625 15.31640625 25.4915625 15.31640625 26.8515625 C8.38640625 26.8515625 1.45640625 26.8515625 -5.68359375 26.8515625 C-6.34359375 24.2115625 -7.00359375 21.5715625 -7.68359375 18.8515625 C-9.39861608 17.41033138 -9.39861608 17.41033138 -11.68359375 16.8515625 C-13.04484375 16.078125 -13.04484375 16.078125 -14.43359375 15.2890625 C-21.51470838 12.15703103 -28.43328244 12.29680354 -35.68359375 14.8515625 C-40.77687936 17.72320544 -43.91879849 21.82244612 -46.0234375 27.234375 C-48.04626336 35.25386212 -47.40692512 43.25799868 -43.94921875 50.7578125 C-41.41765185 54.94583675 -38.36121587 57.05087921 -33.93359375 59.1640625 C-26.1263878 60.81558683 -19.92442666 60.09745311 -12.68359375 56.8515625 C-11.98363281 56.58214844 -11.28367187 56.31273437 -10.5625 56.03515625 C-8.05272975 54.45415753 -7.77883589 53.10783912 -6.99609375 50.2890625 C-5.74188971 45.90985846 -5.74188971 45.90985846 -4.68359375 44.8515625 C-3.19487515 44.76486818 -1.70214875 44.74452756 -0.2109375 44.75390625 C0.68818359 44.75712891 1.58730469 44.76035156 2.51367188 44.76367188 C3.93196289 44.77624023 3.93196289 44.77624023 5.37890625 44.7890625 C6.80299805 44.79583008 6.80299805 44.79583008 8.25585938 44.80273438 C10.6094369 44.8145614 12.96289102 44.83104225 15.31640625 44.8515625 C14.0533424 56.43774439 10.00123398 63.83375132 1.31640625 71.8515625 C-10.33832789 80.71135256 -23.38054156 80.9786927 -37.46484375 79.57421875 C-47.34355373 77.74804877 -56.47883985 71.47343967 -62.4453125 63.49609375 C-69.77692741 52.04599298 -70.10423769 38.80800827 -68.21875 25.59375 C-65.47463666 14.19512536 -59.01484074 5.78618222 -49.68359375 -1.1484375 C-35.16928458 -10.01271282 -14.05565779 -9.40131312 0 0 Z " fill="#000000" transform="translate(647.68359375,48.1484375)"/>
<path d="M0 0 C7.26 0 14.52 0 22 0 C23.88885195 1.88885195 23.12010635 4.64051759 23.12442017 7.15324402 C23.12082489 8.0379689 23.11722961 8.92269379 23.11352539 9.83422852 C23.11367142 10.76096375 23.11381744 11.68769897 23.1139679 12.64251709 C23.11326838 15.72133687 23.10547421 18.80009697 23.09765625 21.87890625 C23.09579221 24.00740018 23.09436824 26.13589453 23.09336853 28.26438904 C23.08954228 33.8786232 23.07971108 39.49283168 23.06866455 45.10705566 C23.05845273 50.83113253 23.0538714 56.55521353 23.04882812 62.27929688 C23.03808891 73.51954256 23.0210112 84.75976915 23 96 C23.68682358 95.99777939 24.37364716 95.99555878 25.08128357 95.99327087 C32.20205162 95.97122105 39.32281004 95.95609467 46.44360352 95.94506836 C49.10441481 95.94002617 51.76522332 95.93319264 54.42602539 95.92456055 C58.24105516 95.91248991 62.05604844 95.90677071 65.87109375 95.90234375 C67.06899033 95.89718246 68.2668869 95.89202118 69.50108337 95.88670349 C71.15268211 95.88659019 71.15268211 95.88659019 72.83764648 95.88647461 C73.81249496 95.884254 74.78734344 95.88203339 75.79173279 95.87974548 C78 96 78 96 79 97 C79 102.94 79 108.88 79 115 C52.93 115 26.86 115 0 115 C0 77.05 0 39.1 0 0 Z " fill="#010000" transform="translate(8,11)"/>
<path d="M0 0 C5.94 0 11.88 0 18 0 C18 7.26 18 14.52 18 22 C24.27 22 30.54 22 37 22 C37 27.28 37 32.56 37 38 C30.73 38 24.46 38 18 38 C18 54.83 18 71.66 18 89 C24.6 89 31.2 89 38 89 C38 94.61 38 100.22 38 106 C33.49898391 106.13539153 29.00207179 106.23433903 24.5 106.3125 C23.2315625 106.35439453 21.963125 106.39628906 20.65625 106.43945312 C14.16547372 106.52396844 9.11087482 106.45068365 3.63085938 102.76635742 C-2.63667972 95.97808716 -2.54541924 89.97987401 -2.390625 81.06640625 C-2.38213531 79.21679543 -2.38213531 79.21679543 -2.37347412 77.32981873 C-2.35115549 73.40697761 -2.30096423 69.48506321 -2.25 65.5625 C-2.22766801 62.89649774 -2.21167969 60.23050418 -2.1953125 57.56445312 C-2.15130524 51.0426547 -2.08443668 44.52139358 -2 38 C-3.28197266 38.01740234 -3.28197266 38.01740234 -4.58984375 38.03515625 C-5.69457031 38.04417969 -6.79929687 38.05320313 -7.9375 38.0625 C-9.03964844 38.07410156 -10.14179687 38.08570313 -11.27734375 38.09765625 C-14 38 -14 38 -15 37 C-15.07313567 34.46950598 -15.09247527 31.96695163 -15.0625 29.4375 C-15.05798828 28.72658203 -15.05347656 28.01566406 -15.04882812 27.28320312 C-15.03700864 25.52209987 -15.01907263 23.76103964 -15 22 C-14.22914063 21.81824219 -13.45828125 21.63648437 -12.6640625 21.44921875 C-11.66117188 21.19785156 -10.65828125 20.94648437 -9.625 20.6875 C-8.12839844 20.32205078 -8.12839844 20.32205078 -6.6015625 19.94921875 C-3.6915014 19.17806142 -3.6915014 19.17806142 -2 16 C-1.5413855 13.25114398 -1.16995349 10.57706875 -0.875 7.8125 C-0.58625 5.234375 -0.2975 2.65625 0 0 Z " fill="#000000" transform="translate(534,20)"/>
<path d="M0 0 C7.26 0 14.52 0 22 0 C22 27.72 22 55.44 22 84 C14.74 84 7.48 84 0 84 C0 56.28 0 28.56 0 0 Z " fill="#000000" transform="translate(97,42)"/>
<path d="M0 0 C3.83958155 1.30400883 5.51655576 2.32317806 7.875 5.625 C9.29929105 9.89787316 9.73363277 13.54238347 9 18 C6.9949912 21.8026029 5.57313738 23.61790841 2 26 C-0.55859375 26.265625 -0.55859375 26.265625 -3.4375 26.25 C-4.38496094 26.25515625 -5.33242188 26.2603125 -6.30859375 26.265625 C-9.0699809 25.99309332 -10.67567411 25.4824034 -13 24 C-15.94188699 20.18644279 -16.75280815 16.77904249 -17 12 C-16.27236708 7.70696577 -15.67530858 5.64154315 -12.5 2.625 C-8.28919749 -0.11202163 -4.97003994 -0.49978055 0 0 Z " fill="#F03C32" transform="translate(781,100)"/>
<path d="M0 0 C3.98444518 3.04692867 3.98444518 3.04692867 4.64453125 5.76171875 C5.32327944 11.67135303 5.32237469 15.50920049 2.125 20.625 C-1.77500056 23.18785751 -6.33140188 23.20295279 -10.875 22.625 C-16.23604141 20.63942911 -16.23604141 20.63942911 -18.01171875 17.8203125 C-19.58520049 13.8189698 -19.53864758 9.83916213 -18.875 5.625 C-15.04991043 -1.71622959 -7.21854516 -3.45234769 0 0 Z " fill="#010000" transform="translate(114.875,9.375)"/>
</svg>
